<mxfile host="app.diagrams.net" modified="2023-05-22T08:55:24.390Z" agent="Mozilla/5.0 (Windows NT 10.0; Win64; x64) AppleWebKit/537.36 (KHTML, like Gecko) Chrome/113.0.0.0 Safari/537.36" version="21.2.9" etag="Qyc-pTMecxz0AgQsFpkK" type="github">
  <diagram name="페이지-1" id="4mkDgwtJUXEG6WYbckpq">
    <mxGraphModel>
      <root>
        <mxCell id="0" />
        <mxCell id="1" parent="0" />
      </root>
    </mxGraphModel>
  </diagram>
</mxfile>
